<?xml version="1.0" encoding="utf-8"?>
<!-- Generator: Adobe Illustrator 22.1.0, SVG Export Plug-In . SVG Version: 6.00 Build 0)  -->
<svg version="1.1"
	 id="Capa_1" xmlns:cc="http://creativecommons.org/ns#" xmlns:dc="http://purl.org/dc/elements/1.1/" xmlns:inkscape="http://www.inkscape.org/namespaces/inkscape" xmlns:rdf="http://www.w3.org/1999/02/22-rdf-syntax-ns#" xmlns:sodipodi="http://sodipodi.sourceforge.net/DTD/sodipodi-0.dtd" xmlns:svg="http://www.w3.org/2000/svg"
	 xmlns="http://www.w3.org/2000/svg" xmlns:xlink="http://www.w3.org/1999/xlink" x="0px" y="0px" viewBox="0 0 32 40"
	 style="enable-background:new 0 0 32 40;" xml:space="preserve">
<style type="text/css">
	.st0{fill:#FFFFFF;}
</style>
<g transform="translate(0,-1020.3622)">
	<path class="st0" d="M6,1027.4c-1.1,0-2,0.9-2,2v14c0,1.1,0.9,2,2,2h1.4c0.1,0,0.1,0,0.2,0h16.8c0.1,0,0.1,0,0.2,0H26
		c1.1,0,2-0.9,2-2v-14c0-1.1-0.9-2-2-2h-1.5h-17H6z M6,1028.4h1.3l8.4,6.9c0.2,0.2,0.5,0.2,0.6,0l8.4-6.9H26c0.6,0,1,0.4,1,1v14
		c0,0.6-0.4,1-1,1h-1v-13c0-0.3-0.2-0.5-0.5-0.5c-0.1,0-0.2,0-0.3,0.1l-8.2,6.7l-8.2-6.7c-0.1-0.1-0.2-0.1-0.3-0.1
		c-0.3,0-0.5,0.2-0.5,0.5v13H6c-0.6,0-1-0.4-1-1v-14C5,1028.8,5.4,1028.4,6,1028.4z M8.9,1028.4h14.2l-7.1,5.9L8.9,1028.4z
		 M8,1032.4l7.7,6.3c0.2,0.2,0.5,0.2,0.6,0l7.7-6.3v11.9H8V1032.4z"/>
</g>
<text transform="matrix(1 0 0 1 0 47)" style="font-family:'Arial-BoldMT'; font-size:5px;">Created by Jemis mali</text>
<text transform="matrix(1 0 0 1 0 52)" style="font-family:'Arial-BoldMT'; font-size:5px;">from the Noun Project</text>
</svg>
